<svg width="450" height="450" viewBox="0 0 450 450" fill="none" xmlns="http://www.w3.org/2000/svg">
<rect x="450" y="450" width="450" height="450" rx="52" transform="rotate(180 450 450)" fill="#CDFF71"/>
<path d="M81.2858 245.685C90.2063 314.402 151.148 369.833 225 369.833C298.845 369.833 359.781 314.402 368.701 245.685C369.985 235.81 362.381 227.6 352.44 227.107C333.302 226.165 295.429 225 224.993 225C154.558 225 116.684 226.165 97.5533 227.107C87.5993 227.6 80.0021 235.81 81.2858 245.685Z" stroke="black" stroke-width="20" stroke-linecap="round" stroke-linejoin="round"/>
<path d="M351.874 227.08C355.337 219.001 356.96 210.253 356.623 201.47C356.287 192.686 354.001 184.087 349.93 176.297C345.859 168.506 340.106 161.719 333.088 156.427C326.069 151.135 317.961 147.471 309.352 145.7C300.742 143.93 291.846 144.097 283.309 146.19C274.772 148.283 266.807 152.249 259.993 157.801C253.178 163.353 247.684 170.352 243.909 178.29C240.134 186.228 238.173 194.906 238.167 203.696C238.156 210.989 239.496 218.221 242.117 225.026" stroke="black" stroke-width="20" stroke-linecap="round" stroke-linejoin="round"/>
<path d="M277.041 147.501C280.28 130.042 273.94 112.781 259.661 104.538C244.994 96.0654 226.264 99.6139 212.669 111.938C212.054 110.682 211.395 109.448 210.694 108.238C196.158 83.0436 166.501 72.9448 144.46 85.6704C123.827 97.5796 117.178 125.263 128.337 149.423C115.598 150.424 104.196 156.685 97.9614 167.488C87.0528 186.382 96.0786 212.011 118.12 224.737C119.002 225.244 119.884 225.724 120.779 226.172" stroke="black" stroke-width="20" stroke-linecap="round" stroke-linejoin="round"/>
<path d="M180.958 151.069C190.032 160.818 196.412 172.762 199.471 185.724C202.53 198.687 202.162 212.223 198.403 225" stroke="black" stroke-width="20" stroke-linecap="round" stroke-linejoin="round"/>
<path d="M315.31 264.5C306.672 283.83 292.171 299.953 273.862 310.583" stroke="black" stroke-width="20" stroke-linecap="round" stroke-linejoin="round"/>
</svg>
