<svg width="49" height="49" viewBox="0 0 49 49" fill="none" xmlns="http://www.w3.org/2000/svg">
<path d="M36.6058 3.744C38.8108 3.962 40.4318 5.607 40.6288 7.814C40.8898 10.758 41.1658 15.85 41.1658 24.25C41.1658 32.65 40.8898 37.743 40.6278 40.685C40.4318 42.893 38.8108 44.538 36.6058 44.756C34.1018 45.004 30.1178 45.25 24.1658 45.25C18.2138 45.25 14.2298 45.004 11.7258 44.756C9.52077 44.538 7.89977 42.893 7.70377 40.686C7.44177 37.743 7.16577 32.65 7.16577 24.25C7.16577 15.85 7.44177 10.757 7.70377 7.814C7.89977 5.607 9.52077 3.962 11.7258 3.744C14.2298 3.496 18.2138 3.25 24.1658 3.25C30.1178 3.25 34.1018 3.496 36.6058 3.744Z" stroke="black" stroke-width="3" stroke-linecap="round" stroke-linejoin="round"/>
<path d="M41.1658 24.25H7.16577" stroke="black" stroke-width="3" stroke-linecap="round" stroke-linejoin="round"/>
<path d="M15.1658 12.25V16.25" stroke="black" stroke-width="3" stroke-linecap="round" stroke-linejoin="round"/>
<path d="M15.1658 32.25V36.25" stroke="black" stroke-width="3" stroke-linecap="round" stroke-linejoin="round"/>
</svg>
